<svg xmlns="http://www.w3.org/2000/svg" width="1600" height="1000" viewBox="0 0 1600 1000">
  <rect width="1600" height="1000" fill="#0b1020"/>
  <text x="70" y="70" fill="#ffffff" font-family="Inter,Arial" font-size="34" font-weight="700">Candidate Promotion Gate</text>
  <text x="70" y="108" fill="#aab7d4" font-family="Inter,Arial" font-size="18">FRIDAY Self-System Upgrade Blueprint</text>
  <defs><marker id="a" markerWidth="10" markerHeight="10" refX="8" refY="3" orient="auto"><path d="M0,0 L0,6 L9,3 z" fill="#8fb5ff"/></marker></defs><rect x="100" y="180" width="300" height="100" rx="18" fill="#17233f" stroke="#6f8fcf" stroke-width="2"/><text x="118" y="218" fill="#fff" font-family="Inter,Arial" font-size="22" font-weight="700">Candidate</text><text x="118" y="248" fill="#b9c8e8" font-family="Inter,Arial" font-size="16">versioned artifact</text><rect x="500" y="180" width="300" height="100" rx="18" fill="#17233f" stroke="#6f8fcf" stroke-width="2"/><text x="518" y="218" fill="#fff" font-family="Inter,Arial" font-size="22" font-weight="700">Static Checks</text><text x="518" y="248" fill="#b9c8e8" font-family="Inter,Arial" font-size="16">schema • dependencies</text><rect x="900" y="180" width="300" height="100" rx="18" fill="#17233f" stroke="#6f8fcf" stroke-width="2"/><text x="918" y="218" fill="#fff" font-family="Inter,Arial" font-size="22" font-weight="700">Behavior Eval</text><text x="918" y="248" fill="#b9c8e8" font-family="Inter,Arial" font-size="16">task benchmark</text><rect x="1300" y="180" width="220" height="100" rx="18" fill="#17233f" stroke="#6f8fcf" stroke-width="2"/><text x="1318" y="218" fill="#fff" font-family="Inter,Arial" font-size="22" font-weight="700">Safety Eval</text><text x="1318" y="248" fill="#b9c8e8" font-family="Inter,Arial" font-size="16">permissions</text><rect x="1300" y="430" width="220" height="100" rx="18" fill="#17233f" stroke="#6f8fcf" stroke-width="2"/><text x="1318" y="468" fill="#fff" font-family="Inter,Arial" font-size="22" font-weight="700">Decision</text><text x="1318" y="498" fill="#b9c8e8" font-family="Inter,Arial" font-size="16">reject / shadow</text><rect x="900" y="430" width="300" height="100" rx="18" fill="#17233f" stroke="#6f8fcf" stroke-width="2"/><text x="918" y="468" fill="#fff" font-family="Inter,Arial" font-size="22" font-weight="700">Canary</text><text x="918" y="498" fill="#b9c8e8" font-family="Inter,Arial" font-size="16">observe</text><rect x="500" y="430" width="300" height="100" rx="18" fill="#17233f" stroke="#6f8fcf" stroke-width="2"/><text x="518" y="468" fill="#fff" font-family="Inter,Arial" font-size="22" font-weight="700">Promote</text><text x="518" y="498" fill="#b9c8e8" font-family="Inter,Arial" font-size="16">version + lineage</text><rect x="100" y="430" width="300" height="100" rx="18" fill="#17233f" stroke="#6f8fcf" stroke-width="2"/><text x="118" y="468" fill="#fff" font-family="Inter,Arial" font-size="22" font-weight="700">Rollback</text><text x="118" y="498" fill="#b9c8e8" font-family="Inter,Arial" font-size="16">restore prior</text><path d="M400 230 L500 230" stroke="#8fb5ff" stroke-width="3" marker-end="url(#a)"/><path d="M800 230 L900 230" stroke="#8fb5ff" stroke-width="3" marker-end="url(#a)"/><path d="M1200 230 L1300 230" stroke="#8fb5ff" stroke-width="3" marker-end="url(#a)"/><path d="M1410 280 L1410 430" stroke="#8fb5ff" stroke-width="3" marker-end="url(#a)"/><path d="M1300 480 L1200 480" stroke="#8fb5ff" stroke-width="3" marker-end="url(#a)"/><path d="M900 480 L800 480" stroke="#8fb5ff" stroke-width="3" marker-end="url(#a)"/><path d="M500 480 L400 480" stroke="#8fb5ff" stroke-width="3" marker-end="url(#a)"/><path d="M250 430 L250 280" stroke="#8fb5ff" stroke-width="3" marker-end="url(#a)"/>
</svg>