<svg xmlns="http://www.w3.org/2000/svg" width="1600" height="950" viewBox="0 0 1600 950">
<title>FRIDAY Model Intelligence Fabric</title><desc>FRIDAY models, provider federation and routing architecture</desc>
<defs><marker id="arrow" viewBox="0 0 10 10" refX="9" refY="5" markerWidth="8" markerHeight="8" orient="auto-start-reverse"><path d="M 0 0 L 10 5 L 0 10 z" fill="#334155"/></marker><filter id="shadow"><feDropShadow dx="0" dy="3" stdDeviation="3" flood-opacity=".15"/></filter></defs>
<rect width="100%" height="100%" fill="#f8fafc"/><text x="60" y="55" font-family="Inter,Arial" font-size="30" font-weight="700" fill="#0f172a">FRIDAY Model Intelligence Fabric</text>
<line x1="195.0" y1="185.0" x2="520.0" y2="185.0" stroke="#334155" stroke-width="3" marker-end="url(#arrow)"/>
<line x1="520.0" y1="185.0" x2="850.0" y2="185.0" stroke="#334155" stroke-width="3" marker-end="url(#arrow)"/>
<line x1="850.0" y1="185.0" x2="1175.0" y2="185.0" stroke="#334155" stroke-width="3" marker-end="url(#arrow)"/>
<line x1="1175.0" y1="185.0" x2="1450.0" y2="185.0" stroke="#334155" stroke-width="3" marker-end="url(#arrow)"/>
<line x1="520.0" y1="395.0" x2="1175.0" y2="185.0" stroke="#334155" stroke-width="3" marker-end="url(#arrow)"/>
<line x1="850.0" y1="395.0" x2="1175.0" y2="185.0" stroke="#334155" stroke-width="3" marker-end="url(#arrow)"/>
<line x1="1175.0" y1="395.0" x2="1450.0" y2="185.0" stroke="#334155" stroke-width="3" marker-end="url(#arrow)"/>
<line x1="1450.0" y1="185.0" x2="1450.0" y2="395.0" stroke="#334155" stroke-width="3" marker-end="url(#arrow)"/>
<line x1="1450.0" y1="395.0" x2="850.0" y2="605.0" stroke="#334155" stroke-width="3" marker-end="url(#arrow)"/>
<line x1="850.0" y1="605.0" x2="520.0" y2="805.0" stroke="#334155" stroke-width="3" marker-end="url(#arrow)"/>
<line x1="850.0" y1="605.0" x2="850.0" y2="805.0" stroke="#334155" stroke-width="3" marker-end="url(#arrow)"/>
<line x1="520.0" y1="805.0" x2="1175.0" y2="805.0" stroke="#334155" stroke-width="3" marker-end="url(#arrow)"/>
<line x1="850.0" y1="805.0" x2="1175.0" y2="805.0" stroke="#334155" stroke-width="3" marker-end="url(#arrow)"/>
<line x1="1175.0" y1="805.0" x2="1450.0" y2="805.0" stroke="#334155" stroke-width="3" marker-end="url(#arrow)"/>
<line x1="1450.0" y1="805.0" x2="1175.0" y2="395.0" stroke="#334155" stroke-width="3" marker-end="url(#arrow)"/>
<rect x="70" y="140" width="250" height="90" rx="18" fill="#dbeafe" stroke="#0f172a" stroke-width="2"/>
<text x="195.0" y="182" text-anchor="middle" font-family="Inter,Arial" font-size="18" fill="#0f172a">Brain / Planner</text>
<rect x="390" y="140" width="260" height="90" rx="18" fill="#e0e7ff" stroke="#0f172a" stroke-width="2"/>
<text x="520.0" y="182" text-anchor="middle" font-family="Inter,Arial" font-size="18" fill="#0f172a">Task Contract Compiler</text>
<rect x="720" y="140" width="260" height="90" rx="18" fill="#fef3c7" stroke="#0f172a" stroke-width="2"/>
<text x="850.0" y="182" text-anchor="middle" font-family="Inter,Arial" font-size="18" fill="#0f172a">Policy + Privacy Gate</text>
<rect x="1050" y="140" width="250" height="90" rx="18" fill="#dcfce7" stroke="#0f172a" stroke-width="2"/>
<text x="1175.0" y="182" text-anchor="middle" font-family="Inter,Arial" font-size="18" fill="#0f172a">Candidate Generator</text>
<rect x="1360" y="140" width="180" height="90" rx="18" fill="#fce7f3" stroke="#0f172a" stroke-width="2"/>
<text x="1450.0" y="182" text-anchor="middle" font-family="Inter,Arial" font-size="18" fill="#0f172a">Smart Router</text>
<rect x="390" y="350" width="260" height="90" rx="18" fill="#e0e7ff" stroke="#0f172a" stroke-width="2"/>
<text x="520.0" y="392" text-anchor="middle" font-family="Inter,Arial" font-size="18" fill="#0f172a">Provider Registry</text>
<rect x="720" y="350" width="260" height="90" rx="18" fill="#dbeafe" stroke="#0f172a" stroke-width="2"/>
<text x="850.0" y="392" text-anchor="middle" font-family="Inter,Arial" font-size="18" fill="#0f172a">Model Intelligence</text>
<text x="850.0" y="419" text-anchor="middle" font-family="Inter,Arial" font-size="18" fill="#0f172a">Evidence + Capability</text>
<rect x="1050" y="350" width="250" height="90" rx="18" fill="#fee2e2" stroke="#0f172a" stroke-width="2"/>
<text x="1175.0" y="392" text-anchor="middle" font-family="Inter,Arial" font-size="18" fill="#0f172a">Health / Limits /</text>
<text x="1175.0" y="419" text-anchor="middle" font-family="Inter,Arial" font-size="18" fill="#0f172a">Performance</text>
<rect x="1360" y="350" width="180" height="90" rx="18" fill="#f3e8ff" stroke="#0f172a" stroke-width="2"/>
<text x="1450.0" y="392" text-anchor="middle" font-family="Inter,Arial" font-size="18" fill="#0f172a">Route Plan</text>
<rect x="720" y="560" width="260" height="90" rx="18" fill="#e0f2fe" stroke="#0f172a" stroke-width="2"/>
<text x="850.0" y="602" text-anchor="middle" font-family="Inter,Arial" font-size="18" fill="#0f172a">Protocol / Adapter Layer</text>
<rect x="390" y="760" width="260" height="90" rx="18" fill="#dcfce7" stroke="#0f172a" stroke-width="2"/>
<text x="520.0" y="802" text-anchor="middle" font-family="Inter,Arial" font-size="18" fill="#0f172a">Cloud Providers</text>
<text x="520.0" y="829" text-anchor="middle" font-family="Inter,Arial" font-size="18" fill="#0f172a">Direct + Gateways</text>
<rect x="720" y="760" width="260" height="90" rx="18" fill="#dcfce7" stroke="#0f172a" stroke-width="2"/>
<text x="850.0" y="802" text-anchor="middle" font-family="Inter,Arial" font-size="18" fill="#0f172a">Local Runtimes</text>
<text x="850.0" y="829" text-anchor="middle" font-family="Inter,Arial" font-size="18" fill="#0f172a">Ollama / LM Studio / etc.</text>
<rect x="1050" y="760" width="250" height="90" rx="18" fill="#fef3c7" stroke="#0f172a" stroke-width="2"/>
<text x="1175.0" y="802" text-anchor="middle" font-family="Inter,Arial" font-size="18" fill="#0f172a">Execution + Streaming</text>
<rect x="1360" y="760" width="180" height="90" rx="18" fill="#f3f4f6" stroke="#0f172a" stroke-width="2"/>
<text x="1450.0" y="802" text-anchor="middle" font-family="Inter,Arial" font-size="18" fill="#0f172a">Telemetry /</text>
<text x="1450.0" y="829" text-anchor="middle" font-family="Inter,Arial" font-size="18" fill="#0f172a">Learning</text>
</svg>